HIERARCHY
ROOT Root
{
  OFFSET 8.18079 11.8871 -0.0452717
  CHANNELS 6 Xposition Yposition Zposition Zrotation Xrotation Yrotation
  JOINT Spine
  {
    OFFSET 5.3114 0 0
    CHANNELS 3 Zrotation Xrotation Yrotation
    JOINT Spine1
    {
      OFFSET 2.79004 0 0
      CHANNELS 3 Zrotation Xrotation Yrotation
      JOINT Neck
      {
        OFFSET 1.43377 0 0
        CHANNELS 3 Zrotation Xrotation Yrotation
        JOINT Head
        {
          OFFSET 1.86043 0 0
          CHANNELS 3 Zrotation Xrotation Yrotation
          End Site
          {
            OFFSET 0 0 0
          }
        }
      }
      JOINT LeftArm
      {
        OFFSET 0.0387506 0 2.55754
        CHANNELS 3 Zrotation Xrotation Yrotation
        JOINT LeftForeArm
        {
          OFFSET 4.24845 0 0
          CHANNELS 3 Zrotation Xrotation Yrotation
          JOINT LeftHand
          {
            OFFSET 4.01008 0 0
            CHANNELS 3 Zrotation Xrotation Yrotation
            End Site
            {
              OFFSET 0 0 0
            }
          }
        }
      }
      JOINT RightArm
      {
        OFFSET 0.0387506 0 -2.55754
        CHANNELS 3 Zrotation Xrotation Yrotation
        JOINT RightForeArm
        {
          OFFSET -4.24845 0 0
          CHANNELS 3 Zrotation Xrotation Yrotation
          JOINT RightHand
          {
            OFFSET -4.01009 0 0
            CHANNELS 3 Zrotation Xrotation Yrotation
            End Site
            {
              OFFSET 0 0 0
            }
          }
        }
      }
    }
  }
  JOINT LeftUpLeg
  {
    OFFSET -1.23318 0 2.05692
    CHANNELS 3 Zrotation Xrotation Yrotation
    JOINT LeftLeg
    {
      OFFSET 5.46397 0 0
      CHANNELS 3 Zrotation Xrotation Yrotation
      JOINT LeftFoot
      {
        OFFSET 4.68898 0 0
        CHANNELS 3 Zrotation Xrotation Yrotation
        End Site
        {
          OFFSET 0 0 0
        }
      }
    }
  }
  JOINT RightUpLeg
  {
    OFFSET -1.24454 0 -2.05007
    CHANNELS 3 Zrotation Xrotation Yrotation
    JOINT RightLeg
    {
      OFFSET -5.46397 0 0
      CHANNELS 3 Zrotation Xrotation Yrotation
      JOINT RightFoot
      {
        OFFSET -4.68901 0 0
        CHANNELS 3 Zrotation Xrotation Yrotation
        End Site
        {
          OFFSET 0 0 0
        }
      }
    }
  }
}
MOTION
Frames:	10
Frame Time:	0.0416667
8.18079 11.8871 -0.0452717 -0 90 90 9.69808e-018 1.34041e-020 0.158382 1.41245e-030 7.06225e-031 2.48481e-017 -7.30747e-017 7.61111e-019 -1.19349 3.40995e-017 1.65719e-019 0.556895 -2.12238e-008 -1.53545e-005 -90.1584 -2.50273e-005 -2.47192e-012 6.55612e-006 1.52588e-005 -6.98387e-015 174.455 180 -4.60993e-005 -89.8417 -5.49628e-005 -2.25992e-011 3.612e-005 1.52588e-005 6.98387e-015 174.455 -3.94782 -0.248796 -175.995 -8.56321 0.17594 -0.870012 4.60937 -0.077536 176.868 177.961 -0.126787 -176.037 -4.42285 0.08461 -0.877262 2.38107 -0.0336168 176.598 
8.08741 11.8801 -0.668834 100.551 -12.6747 -0.68093 -11.8451 2.52571 -0.465469 6.94933 0.763731 1.64589 -19.7059 0.731668 -5.43864 35.6755 1.50834 4.87558 -6.01825 -18.0271 175.862 24.8961 0.771567 14.4642 -1.21271 -13.5982 174.309 -176.659 -5.28151 -178.584 26.3606 1.00033 15.3017 1.92131 20.9645 174.097 -18.8849 0.200845 177.655 -35.5108 -1.0384 -1.3488 29.9302 -2.82297 178.848 158.071 -8.9225 -179.765 -34.0906 -0.865222 -1.34551 -0.132174 11.5548 177.047 
8.07341 11.8678 -0.575833 99.5088 -6.21163 -0.890693 -10.6205 2.06019 -0.527437 6.48049 0.631265 1.59236 -18.2981 0.839249 -5.07797 33.2384 1.70057 4.4088 -5.29616 -25.0115 -178.784 24.9062 0.982031 14.4445 -1.34935 -15.061 174.275 -177.203 -6.07039 -173.092 24.7553 0.956982 14.3588 1.76059 19.3416 174.154 -17.6037 0.423494 178.116 -34.3982 -0.97329 -1.33236 28.9093 -2.27633 178.589 158.044 -7.8857 -179.552 -35.6278 -0.874934 -1.39164 -0.431232 10.6213 177.115 
8.04589 11.856 -0.53875 99.204 -6.60425 -1.10061 -10.1953 1.86394 -0.561445 6.34037 0.576254 1.61485 -18.2425 0.973751 -5.06615 33.356 1.95047 4.3165 -5.66694 -35.9223 -178.027 27.6349 1.4741 15.9867 -1.51782 -16.8255 174.227 -178.024 -7.37757 -173.605 24.9155 0.983496 14.4498 1.73555 19.0937 174.162 -17.2736 0.605037 178.167 -34.7645 -0.989112 -1.33895 29.4672 -2.00351 178.503 155.872 -7.73133 -179.853 -39.8234 -0.957258 -1.50407 -0.138695 10.2609 177.067 
8.00306 11.8492 -0.507578 98.9735 -6.89835 -1.12031 -9.66131 1.55408 -0.705753 6.19639 0.492156 1.74 -18.367 1.14478 -4.99097 33.2973 2.18031 3.8472 -5.24142 -44.7368 -176.232 30.613 2.09666 17.6502 -1.45789 -16.3098 174.244 -178.886 -8.77787 -174.046 25.3688 1.06002 14.707 1.68848 18.6427 174.176 -16.7724 0.599454 177.95 -34.8299 -1.00933 -1.33817 29.8571 -2.14267 178.612 153.324 -7.65786 179.923 -43.7964 -1.0263 -1.61964 0.255418 9.4854 177.019 
7.92992 11.852 -0.481416 98.7809 -7.29781 -1.09326 -9.23015 1.34295 -0.787257 6.21458 0.442807 1.92416 -18.4982 1.31624 -4.6996 33.0794 2.40863 3.12662 -4.14152 -50.6246 -173.952 33.1181 2.68976 19.0313 -1.40391 -15.8079 174.261 -179.695 -9.53248 -174.564 26.0337 1.17605 15.0836 1.70066 18.7356 174.171 -15.8378 0.218882 177.541 -34.3445 -1.03195 -1.3275 30.4125 -2.94037 179.061 150.761 -7.82426 179.653 -46.5702 -1.08796 -1.7037 1.40982 7.93414 176.886 
7.83697 11.8513 -0.457944 98.675 -7.19302 -1.13943 -8.80925 0.687064 -0.775041 6.16359 0.272706 2.21491 -18.2917 1.54266 -4.40537 32.3747 2.76206 2.39859 -3.21958 -53.238 -172.246 34.6486 3.08383 19.8656 -1.45015 -16.2399 174.25 179.513 -9.96667 -174.836 26.7777 1.31099 15.504 1.6733 18.446 174.18 -14.9693 0.0366402 177.292 -33.8833 -1.03972 -1.31774 30.7677 -3.20744 179.248 148.537 -7.55789 179.431 -47.3516 -1.1312 -1.72864 2.45713 6.72892 176.812 
7.71987 11.845 -0.441464 98.7701 -6.9165 -1.25208 -8.53567 -0.245096 -0.636776 6.13884 0.0273318 2.54839 -18.1728 1.81736 -4.10445 31.8278 3.26011 1.81757 -2.9129 -53.2227 -171.388 34.9979 3.17674 20.055 -1.48917 -16.5903 174.241 178.75 -10.0508 -174.891 27.414 1.43118 15.8625 1.59023 17.5932 174.207 -14.241 -0.168826 177.19 -33.4723 -1.03714 -1.30927 31.2548 -3.12783 179.264 146.395 -7.20361 179.183 -46.1728 -1.13589 -1.70167 2.97733 5.71946 176.807 
7.58133 11.8369 -0.426414 98.8815 -6.67371 -1.20924 -8.11599 -0.7622 -0.524483 5.94755 -0.119052 2.58144 -17.9963 1.93901 -3.74765 31.207 3.59636 1.68218 -3.05847 -52.0204 -170.702 33.7807 2.85798 19.3932 -1.47134 -16.4003 174.248 178.36 -9.68994 -174.824 27.8602 1.51767 16.1133 1.53153 16.9853 174.225 -13.2029 -0.406188 176.899 -32.5956 -1.02902 -1.28831 31.6445 -3.25815 179.375 144.784 -7.03228 179.141 -43.235 -1.12895 -1.60636 2.91 4.34853 176.898 
7.42228 11.8291 -0.419561 99.0404 -6.70545 -1.28419 -7.71627 -0.981233 -0.131588 5.58654 -0.187899 2.44103 -17.4514 2.00723 -3.75212 30.2943 3.85162 2.06061 -3.64782 -50.247 -170.072 31.1926 2.22908 17.9711 -1.46099 -16.2931 174.252 178.448 -9.13156 -174.44 27.9344 1.53226 16.1551 1.49914 16.6604 174.235 -12.0485 -0.501757 176.816 -31.6796 -1.01619 -1.26336 32.0053 -3.36856 179.47 143.376 -7.07677 178.798 -38.9349 -1.09152 -1.48441 2.59736 3.5709 176.943 
